<?xml version="1.0" encoding="utf-8"?>
<!-- Generator: Adobe Illustrator 16.0.0, SVG Export Plug-In . SVG Version: 6.00 Build 0)  -->
<!DOCTYPE svg PUBLIC "-//W3C//DTD SVG 1.1//EN" "http://www.w3.org/Graphics/SVG/1.1/DTD/svg11.dtd">
<svg version="1.1" id="Layer_1" xmlns="http://www.w3.org/2000/svg" xmlns:xlink="http://www.w3.org/1999/xlink" x="0px" y="0px"
	 width="644.968px" height="247.963px" viewBox="0 0 644.968 247.963" enable-background="new 0 0 644.968 247.963"
	 xml:space="preserve">
<g>
	<polygon fill="#F47E0B" points="23.735,239.424 17.479,239.424 17.479,209.441 34.666,209.441 34.666,214.65 23.735,214.65 
		23.735,222.382 33.907,222.382 33.907,227.569 23.735,227.569 	"/>
	<path fill="#F47E0B" d="M58.885,239.424l-2.173-7.137H45.78l-2.174,7.137h-6.85l10.583-30.105h7.772l10.623,30.105H58.885z
		 M55.194,226.955c-2.011-6.467-3.142-10.124-3.395-10.972s-0.434-1.518-0.544-2.01c-0.451,1.75-1.743,6.077-3.875,12.981H55.194z"
		/>
	<path fill="#F47E0B" d="M82.202,239.424l-7.219-23.522H74.8c0.259,4.785,0.389,7.978,0.389,9.577v13.945h-5.68v-29.982h8.654
		l7.096,22.928h0.123l7.525-22.928h8.654v29.982h-5.926v-14.191c0-0.67,0.01-1.442,0.029-2.317c0.021-0.875,0.113-3.199,0.277-6.973
		h-0.184l-7.732,23.481H82.202z"/>
	<rect x="109.108" y="209.441" fill="#F47E0B" width="6.357" height="29.982"/>
	<polygon fill="#F47E0B" points="123.013,239.424 123.013,209.441 129.37,209.441 129.37,234.174 141.532,234.174 141.532,239.424 	
		"/>
	<polygon fill="#F47E0B" points="156.071,221.787 162.327,209.441 169.176,209.441 159.229,227.755 159.229,239.424 
		152.913,239.424 152.913,227.96 142.968,209.441 149.858,209.441 	"/>
	<polygon fill="#F47E0B" points="190.114,239.424 183.86,239.424 183.86,209.441 201.046,209.441 201.046,214.65 190.114,214.65 
		190.114,222.382 200.286,222.382 200.286,227.569 190.114,227.569 	"/>
	<rect x="206.911" y="209.441" fill="#F47E0B" width="6.357" height="29.982"/>
	<path fill="#F47E0B" d="M227.173,227.919v11.505h-6.357v-29.982h8.736c4.074,0,7.089,0.742,9.043,2.225
		c1.955,1.484,2.933,3.736,2.933,6.758c0,1.764-0.485,3.332-1.456,4.707c-0.97,1.373-2.344,2.45-4.122,3.229
		c4.513,6.74,7.452,11.095,8.819,13.063h-7.055l-7.157-11.505H227.173z M227.173,222.751h2.051c2.01,0,3.492-0.335,4.449-1.005
		s1.437-1.723,1.437-3.158c0-1.422-0.49-2.434-1.466-3.035c-0.979-0.602-2.492-0.902-4.543-0.902h-1.928V222.751z"/>
	<path fill="#F47E0B" d="M266.239,231.098c0,2.707-0.974,4.84-2.923,6.397c-1.946,1.56-4.657,2.339-8.131,2.339
		c-3.198,0-6.028-0.602-8.489-1.805v-5.906c2.022,0.902,3.734,1.537,5.137,1.907c1.4,0.369,2.683,0.554,3.845,0.554
		c1.396,0,2.464-0.267,3.209-0.8c0.746-0.533,1.119-1.326,1.119-2.379c0-0.588-0.164-1.11-0.493-1.569
		c-0.328-0.457-0.809-0.898-1.446-1.322c-0.635-0.424-1.931-1.102-3.886-2.03c-1.832-0.862-3.206-1.688-4.122-2.481
		s-1.647-1.717-2.194-2.769c-0.547-1.053-0.819-2.283-0.819-3.691c0-2.652,0.897-4.737,2.696-6.256
		c1.797-1.517,4.282-2.275,7.455-2.275c1.559,0,3.045,0.185,4.461,0.554c1.414,0.369,2.895,0.888,4.438,1.559l-2.05,4.942
		c-1.6-0.656-2.922-1.114-3.969-1.374c-1.045-0.26-2.074-0.39-3.086-0.39c-1.203,0-2.127,0.28-2.77,0.841
		c-0.643,0.56-0.963,1.292-0.963,2.194c0,0.561,0.129,1.05,0.389,1.466c0.26,0.418,0.674,0.82,1.241,1.211
		c0.567,0.389,1.911,1.09,4.03,2.102c2.802,1.34,4.723,2.684,5.762,4.029C265.72,227.492,266.239,229.143,266.239,231.098"/>
	<polygon fill="#F47E0B" points="283.241,239.424 276.884,239.424 276.884,214.732 268.741,214.732 268.741,209.441 
		291.383,209.441 291.383,214.732 283.241,214.732 	"/>
</g>
<g>
	<path fill="#686868" d="M317.988,214.938c-2.393,0-4.245,0.899-5.558,2.696c-1.313,1.799-1.969,4.304-1.969,7.517
		c0,6.686,2.509,10.028,7.526,10.028c2.105,0,4.655-0.526,7.649-1.579v5.332c-2.461,1.025-5.209,1.538-8.244,1.538
		c-4.361,0-7.697-1.322-10.008-3.969c-2.311-2.645-3.466-6.442-3.466-11.392c0-3.117,0.567-5.848,1.702-8.192
		s2.765-4.143,4.891-5.395c2.126-1.25,4.618-1.876,7.476-1.876c2.912,0,5.838,0.704,8.777,2.112l-2.051,5.168
		c-1.121-0.533-2.249-0.998-3.384-1.395S319.082,214.938,317.988,214.938z"/>
	<path fill="#686868" d="M359.229,225.027c0,4.963-1.23,8.777-3.691,11.443s-5.988,3.999-10.582,3.999s-8.121-1.333-10.582-3.999
		s-3.691-6.494-3.691-11.484s1.233-8.801,3.702-11.433c2.467-2.632,6.005-3.948,10.612-3.948s8.132,1.326,10.571,3.979
		C358.01,216.236,359.229,220.051,359.229,225.027z M337.348,225.027c0,3.35,0.636,5.872,1.907,7.567s3.172,2.543,5.701,2.543
		c5.072,0,7.608-3.37,7.608-10.11c0-6.754-2.522-10.131-7.567-10.131c-2.529,0-4.437,0.851-5.722,2.554
		C337.99,219.151,337.348,221.678,337.348,225.027z"/>
	<path fill="#686868" d="M392.042,240.06h-8.08l-13.043-22.682h-0.185c0.26,4.006,0.39,6.863,0.39,8.572v14.109h-5.681v-29.982
		h8.019l13.022,22.456h0.144c-0.205-3.896-0.308-6.651-0.308-8.265v-14.191h5.722V240.06z"/>
	<path fill="#686868" d="M417.287,231.733c0,2.707-0.974,4.84-2.923,6.398c-1.947,1.559-4.658,2.338-8.131,2.338
		c-3.199,0-6.029-0.602-8.49-1.805v-5.906c2.023,0.902,3.735,1.538,5.137,1.907s2.684,0.554,3.846,0.554
		c1.395,0,2.464-0.267,3.209-0.8s1.118-1.326,1.118-2.379c0-0.588-0.164-1.11-0.492-1.569c-0.328-0.457-0.81-0.898-1.446-1.322
		c-0.635-0.424-1.931-1.101-3.886-2.03c-1.832-0.861-3.206-1.688-4.122-2.481s-1.647-1.716-2.194-2.769s-0.82-2.283-0.82-3.691
		c0-2.652,0.898-4.737,2.696-6.255s4.283-2.276,7.455-2.276c1.559,0,3.045,0.185,4.461,0.554c1.414,0.369,2.895,0.889,4.439,1.559
		l-2.051,4.942c-1.6-0.656-2.922-1.114-3.969-1.374c-1.045-0.26-2.074-0.39-3.086-0.39c-1.203,0-2.126,0.28-2.769,0.841
		s-0.964,1.292-0.964,2.194c0,0.561,0.13,1.05,0.39,1.466c0.26,0.418,0.673,0.82,1.241,1.211c0.566,0.389,1.91,1.09,4.029,2.102
		c2.803,1.34,4.724,2.684,5.763,4.029C416.768,228.128,417.287,229.778,417.287,231.733z"/>
	<path fill="#686868" d="M434.288,240.06h-6.357v-24.691h-8.142v-5.291h22.641v5.291h-8.142V240.06z"/>
	<path fill="#686868" d="M453.401,228.555v11.505h-6.357v-29.982h8.736c4.074,0,7.089,0.742,9.044,2.225
		c1.955,1.484,2.933,3.736,2.933,6.758c0,1.764-0.485,3.332-1.456,4.707c-0.971,1.373-2.345,2.45-4.122,3.229
		c4.512,6.74,7.451,11.095,8.818,13.063h-7.055l-7.157-11.505H453.401z M453.401,223.387h2.051c2.01,0,3.493-0.335,4.45-1.005
		s1.436-1.723,1.436-3.158c0-1.422-0.489-2.434-1.466-3.035c-0.979-0.602-2.492-0.902-4.543-0.902h-1.928V223.387z"/>
	<path fill="#686868" d="M499.175,210.077v19.4c0,2.215-0.496,4.156-1.486,5.824c-0.992,1.668-2.424,2.946-4.297,3.835
		s-4.088,1.333-6.645,1.333c-3.855,0-6.85-0.987-8.982-2.963s-3.199-4.68-3.199-8.111v-19.318h6.337v18.354
		c0,2.311,0.465,4.006,1.395,5.086s2.468,1.62,4.614,1.62c2.078,0,3.585-0.543,4.521-1.631c0.937-1.086,1.405-2.792,1.405-5.116
		v-18.313H499.175z"/>
	<path fill="#686868" d="M519.252,214.938c-2.393,0-4.245,0.899-5.558,2.696c-1.313,1.799-1.969,4.304-1.969,7.517
		c0,6.686,2.509,10.028,7.526,10.028c2.105,0,4.655-0.526,7.649-1.579v5.332c-2.461,1.025-5.209,1.538-8.244,1.538
		c-4.361,0-7.697-1.322-10.008-3.969c-2.311-2.645-3.466-6.442-3.466-11.392c0-3.117,0.567-5.848,1.702-8.192
		s2.765-4.143,4.891-5.395c2.126-1.25,4.618-1.876,7.476-1.876c2.912,0,5.838,0.704,8.777,2.112l-2.051,5.168
		c-1.121-0.533-2.249-0.998-3.384-1.395S520.346,214.938,519.252,214.938z"/>
	<path fill="#686868" d="M544.846,240.06h-6.357v-24.691h-8.142v-5.291h22.641v5.291h-8.142V240.06z"/>
	<path fill="#686868" d="M557.602,240.06v-29.982h6.357v29.982H557.602z"/>
	<path fill="#686868" d="M598.72,225.027c0,4.963-1.23,8.777-3.691,11.443s-5.988,3.999-10.582,3.999s-8.121-1.333-10.582-3.999
		s-3.691-6.494-3.691-11.484s1.233-8.801,3.702-11.433c2.467-2.632,6.005-3.948,10.612-3.948s8.132,1.326,10.571,3.979
		C597.5,216.236,598.72,220.051,598.72,225.027z M576.838,225.027c0,3.35,0.636,5.872,1.907,7.567s3.172,2.543,5.701,2.543
		c5.072,0,7.608-3.37,7.608-10.11c0-6.754-2.522-10.131-7.567-10.131c-2.529,0-4.437,0.851-5.722,2.554
		C577.48,219.151,576.838,221.678,576.838,225.027z"/>
	<path fill="#686868" d="M631.532,240.06h-8.08l-13.043-22.682h-0.185c0.26,4.006,0.39,6.863,0.39,8.572v14.109h-5.681v-29.982
		h8.019l13.022,22.456h0.144c-0.205-3.896-0.308-6.651-0.308-8.265v-14.191h5.722V240.06z"/>
</g>
<g>
	<path fill="#242424" d="M423.826,127.68l-19.34,5.06l-13.38,3.82V114.6l-29.141-12.8l-19.34,5.06l0.3-46.7l-30.35-20.82
		l-47.58,20.82v100.15c1.56-0.34,3.12-0.66,4.68-0.97v-12.8l7.58-1.26v12.67c1.41-0.24,2.82-0.48,4.24-0.71v-12.67l7.68-1.26v12.75
		c0.271-0.04,0.54-0.08,0.811-0.12c1.29-0.19,2.55-0.36,3.779-0.5v-12.9l7.37-1.22v13.39c1.63-0.11,3.19-0.17,4.681-0.2v-13.97
		l7.14-1.19v15.4c7.73,0.71,13.23,2.96,16.79,6.86c0.27-0.08,0.54-0.16,0.83-0.25v-17.02l7.14-1.18v16.27
		c1.59-0.39,3.3-0.8,5.13-1.2v-15.92l6.471-1.07v15.67c1.71-0.33,3.5-0.64,5.359-0.95v-15.61l6.91-1.14v15.72
		c9.061-1.22,19.521-2.09,31.15-2.2v-11.58l6.91-1.5v13.1c1.71,0.02,3.42,0.07,5.13,0.13v-14.33l6.47-1.4v16.04
		c1.79,0.11,3.57,0.24,5.36,0.39v-17.59l7.14-1.54v19.8c9.81,1.09,19.84,2.85,29.22,4.85v-18.62L423.826,127.68z M277.256,139.92
		l-7.58,1.42v-22.72l7.58-1.9V139.92z M277.256,111.18l-7.58,1.88V91l7.58-2.4V111.18z M277.256,83.22l-7.58,2.58V63.36l7.58-3.13
		V83.22z M289.176,137.68l-7.68,1.44v-23.46l7.68-1.93V137.68z M289.176,108.23l-7.68,1.9V87.26l7.68-2.43V108.23z M289.176,79.18
		l-7.68,2.61v-23.3l7.68-3.17V79.18z M301.136,135.43l-7.37,1.38v-24.24l7.37-1.84V135.43z M301.136,105.27l-7.37,1.82V83.37
		l7.37-2.33V105.27z M301.136,75.12l-7.37,2.5V53.43l7.37-3.05V75.12z M312.956,133.2l-7.14,1.34v-24.99l7.14-1.8V133.2z
		 M312.956,102.34l-7.14,1.76V79.56l7.14-2.26V102.34z M312.956,71.11l-7.14,2.42V48.46l7.14-2.95V71.11z M337.716,137.91
		l-7.14,1.27v-24.73l7.14-1.54V137.91z M349.316,135.85l-6.471,1.15v-25.2l6.471-1.4V135.85z M361.586,133.66l-6.91,1.23v-25.64
		l6.91-1.5V133.66z"/>
	<path fill="#242424" d="M342.846,31.46v-27l-89.899,16.29L247.366,0l-17.18,6.91l-4.681,24.32l-25.439,9.82v7.36l24.1,10.71
		l-0.36,114.47c1.71-0.74,3.381-1.45,5.04-2.12v-11.29l4.301,9.59c1.77-0.69,3.52-1.34,5.25-1.95l-6.7-14.33h7.189v14.16
		c1.61-0.57,3.21-1.11,4.79-1.62v-12.54h4.811v11.04c1.5-0.45,2.989-0.88,4.46-1.27V49.97l84.55-35.47v16.96h-9.82v7.88h25.21v-7.88
		H342.846z M204.756,44.4l14.05-5.06l-5.8,9.07L204.756,44.4z M223.946,53.32l-6.25-2.46l6.25-10.03V53.32z M228.846,65.81
		l7.811,9.6l-7.811,2.23V65.81z M228.846,90l6.7,10.58l-6.7,1.37V90z M228.846,114.11l6.7,9.48l-6.7,2.46V114.11z M228.846,149.14
		v-13.28l5.7,13.28H228.846z M238.886,143.9l-8.699-14.28h8.699V143.9z M238.886,120.25l-8.699-13.39l8.699-2.9V120.25z
		 M238.886,94.81l-8.699-12.04l8.699-3.35V94.81z M238.886,68.94l-8.699-9.82l8.699-3.35V68.94z M238.886,50.19l-10.04,4.24V34.58
		l10.04-4.46V50.19z M230.187,29.22l4.359-17.84l4.34,14.28L230.187,29.22z M248.486,147.91h-4.811v-18.29h4.811V147.91z
		 M248.486,123.59h-4.811v-18.96h4.811V123.59z M248.486,100.58l-4.811-1.75V79.42l4.811,1.56V100.58z M248.486,76.52l-4.811-1.56
		V53.32l4.811-1.79V76.52z M248.486,45.73l-4.811,2.68V29.22l4.811-2.23V45.73z M243.676,24.09l-4.79-14.94l5.58-2.46l4.021,14.73
		L243.676,24.09z M253.166,44.4V29.22l9.82,11.16L253.166,44.4z M264.996,34.58l-8.48-9.37l8.48-1.12V34.58z M269.676,37.48V24.09
		l7.91,9.6L269.676,37.48z M281.496,29.22l-7.8-7.86l7.8-1.06V29.22z M286.856,30.12V20.3l7.359,7.14L286.856,30.12z M297.566,25.21
		l-6.7-7.14l6.7-0.55V25.21z M302.696,24.09v-8.7l5.13,6.47L302.696,24.09z M312.956,20.3l-5.13-5.58h5.13V20.3z M317.866,18.07
		v-5.13l15.39-1.56L317.866,18.07z"/>
</g>
<path fill="none" d="M238.886,167.65c-0.17,0.06-0.33,0.11-0.489,0.17"/>
<path fill="#F9CA06" d="M496.076,176.84c-1.65-0.44-20.13-5.34-43.11-9.02c-15.22-2.44-32.41-4.34-48-4.03
	c-0.069-0.01-0.13-0.01-0.189,0c-1.73,0.03-3.45,0.09-5.13,0.18c-2.36,0.12-4.671,0.31-6.91,0.56c-1.431,0.15-2.83,0.34-4.2,0.55
	c-9.96,1.53-19.26,3.48-27.771,5.64c-2.079,0.51-4.109,1.05-6.09,1.6c-1.83,0.5-3.62,1.01-5.359,1.52
	c-2.23,0.66-4.391,1.319-6.471,1.99c-1.77,0.56-3.479,1.13-5.13,1.69c-2.51,0.85-4.89,1.699-7.14,2.529
	c-1.061,0.391-2.08,0.78-3.08,1.16c-5.91,2.27-10.81,4.38-14.54,6.09c-3.33,1.52-5.75,2.73-7.14,3.45
	c-0.94,0.489-1.42,0.76-1.42,0.76c-0.95,0.649-1.53,1.04-1.53,1.04s1.76-2.641,2.95-5.79c0.6-1.59,1.05-3.31,1.05-4.88
	c0-1.061-0.36-2.029-1.05-2.92c-0.95-1.24-2.54-2.29-4.681-3.13c-2-0.8-4.479-1.41-7.37-1.81c-1.43-0.2-2.96-0.34-4.59-0.43
	c-0.21-0.02-0.42-0.03-0.64-0.04c-2.4-0.12-4.63-0.21-6.74-0.26c-6.02-0.17-11.13-0.05-16.8,0.61c-3.65,0.41-7.53,1.05-12.05,1.97
	c-2.38,0.49-4.94,1.05-7.74,1.71c-0.5,0.12-1.01,0.239-1.53,0.36c-1.529,0.369-3.12,0.75-4.79,1.17c-1.39,0.35-2.84,0.709-4.35,1.1
	c-0.47,0.12-0.95,0.25-1.45,0.391c-2.77,0.779-5.939,1.859-9.31,3.119c-16.09,5.99-36.58,16.02-38.15,16.78
	c14.42-8.74,26.89-15.31,38.16-20.341c7.04-3.149,13.61-5.699,19.89-7.819c1.62-0.54,3.221-1.05,4.811-1.54
	c1.5-0.47,2.989-0.91,4.46-1.33c4.09-1.16,8.09-2.15,12.05-3.03c1.57-0.35,3.13-0.68,4.68-0.98c2.53-0.52,5.05-0.98,7.58-1.42
	c1.41-0.25,2.82-0.49,4.24-0.72c2.54-0.41,5.09-0.8,7.68-1.19c0.561-0.08,1.13-0.17,1.69-0.25c1-0.15,1.96-0.28,2.899-0.4
	c2.671-0.35,5.12-0.6,7.37-0.75c1.67-0.12,3.221-0.19,4.681-0.21c2.71-0.05,5.069,0.05,7.14,0.26c9.95,1.05,12.94,4.83,14.31,7.93
	c0.78-0.27,1.891-0.64,3.311-1.08c1.86-0.57,4.25-1.26,7.14-2c1.57-0.41,3.28-0.82,5.13-1.24c2-0.46,4.15-0.92,6.471-1.37
	c1.699-0.33,3.489-0.65,5.359-0.96c2.19-0.38,4.5-0.73,6.91-1.07c9-1.24,19.47-2.15,31.15-2.26c2.26-0.03,4.56-0.02,6.91,0.02
	c1.689,0.02,3.399,0.07,5.13,0.13c2.12,0.08,4.279,0.19,6.47,0.33c1.76,0.1,3.55,0.23,5.36,0.38c1.08,0.09,2.17,0.19,3.26,0.29
	c1.29,0.12,2.58,0.26,3.88,0.41c9.8,1.12,19.85,2.93,29.22,4.95C475.676,170.15,494.426,176.3,496.076,176.84z"/>
</svg>
