<?xml version="1.0" encoding="utf-8"?>
<!-- Generator: Adobe Illustrator 20.1.0, SVG Export Plug-In . SVG Version: 6.00 Build 0)  -->
<svg version="1.1" id="Layer_1" xmlns="http://www.w3.org/2000/svg" xmlns:xlink="http://www.w3.org/1999/xlink" x="0px" y="0px"
	 viewBox="0 0 645 248" style="enable-background:new 0 0 645 248;" xml:space="preserve">
<style type="text/css">
	.st0{fill:#1D273B;}
	.st1{fill:#528BFC;}
</style>
<g>
	<polygon class="st0" points="23.7,239.4 17.5,239.4 17.5,209.4 34.7,209.4 34.7,214.6 23.7,214.6 23.7,222.4 33.9,222.4 
		33.9,227.6 23.7,227.6 	"/>
	<path class="st0" d="M58.9,239.4l-2.2-7.1H45.8l-2.2,7.1h-6.8l10.6-30.1h7.8l10.6,30.1H58.9z M55.2,227c-2-6.5-3.1-10.1-3.4-11
		s-0.4-1.5-0.5-2c-0.5,1.8-1.7,6.1-3.9,13L55.2,227L55.2,227z"/>
	<path class="st0" d="M82.2,239.4L75,215.9h-0.2c0.3,4.8,0.4,8,0.4,9.6v13.9h-5.7v-30h8.7l7.1,22.9h0.1l7.5-22.9h8.7v30h-5.9v-14.2
		c0-0.7,0-1.4,0-2.3c0-0.9,0.1-3.2,0.3-7h-0.2L88,239.4L82.2,239.4L82.2,239.4z"/>
	<rect x="109.1" y="209.4" class="st0" width="6.4" height="30"/>
	<polygon class="st0" points="123,239.4 123,209.4 129.4,209.4 129.4,234.2 141.5,234.2 141.5,239.4 	"/>
	<polygon class="st0" points="156.1,221.8 162.3,209.4 169.2,209.4 159.2,227.8 159.2,239.4 152.9,239.4 152.9,228 143,209.4 
		149.9,209.4 	"/>
	<polygon class="st0" points="190.1,239.4 183.9,239.4 183.9,209.4 201,209.4 201,214.6 190.1,214.6 190.1,222.4 200.3,222.4 
		200.3,227.6 190.1,227.6 	"/>
	<rect x="206.9" y="209.4" class="st0" width="6.4" height="30"/>
	<path class="st0" d="M227.2,227.9v11.5h-6.4v-30h8.7c4.1,0,7.1,0.7,9,2.2c2,1.5,2.9,3.7,2.9,6.8c0,1.8-0.5,3.3-1.5,4.7
		c-1,1.4-2.3,2.4-4.1,3.2c4.5,6.7,7.5,11.1,8.8,13.1h-7.1l-7.2-11.5L227.2,227.9L227.2,227.9z M227.2,222.8h2.1c2,0,3.5-0.3,4.4-1
		s1.4-1.7,1.4-3.2c0-1.4-0.5-2.4-1.5-3c-1-0.6-2.5-0.9-4.5-0.9h-1.9V222.8z"/>
	<path class="st0" d="M266.2,231.1c0,2.7-1,4.8-2.9,6.4c-1.9,1.6-4.7,2.3-8.1,2.3c-3.2,0-6-0.6-8.5-1.8v-5.9c2,0.9,3.7,1.5,5.1,1.9
		c1.4,0.4,2.7,0.6,3.8,0.6c1.4,0,2.5-0.3,3.2-0.8c0.7-0.5,1.1-1.3,1.1-2.4c0-0.6-0.2-1.1-0.5-1.6c-0.3-0.5-0.8-0.9-1.4-1.3
		c-0.6-0.4-1.9-1.1-3.9-2c-1.8-0.9-3.2-1.7-4.1-2.5s-1.6-1.7-2.2-2.8c-0.5-1.1-0.8-2.3-0.8-3.7c0-2.7,0.9-4.7,2.7-6.3
		c1.8-1.5,4.3-2.3,7.5-2.3c1.6,0,3,0.2,4.5,0.6c1.4,0.4,2.9,0.9,4.4,1.6l-2,4.9c-1.6-0.7-2.9-1.1-4-1.4c-1-0.3-2.1-0.4-3.1-0.4
		c-1.2,0-2.1,0.3-2.8,0.8c-0.6,0.6-1,1.3-1,2.2c0,0.6,0.1,1.1,0.4,1.5c0.3,0.4,0.7,0.8,1.2,1.2c0.6,0.4,1.9,1.1,4,2.1
		c2.8,1.3,4.7,2.7,5.8,4C265.7,227.5,266.2,229.1,266.2,231.1"/>
	<polygon class="st0" points="283.2,239.4 276.9,239.4 276.9,214.7 268.7,214.7 268.7,209.4 291.4,209.4 291.4,214.7 283.2,214.7 	
		"/>
</g>
<g>
	<path class="st0" d="M318,214.9c-2.4,0-4.2,0.9-5.6,2.7c-1.3,1.8-2,4.3-2,7.5c0,6.7,2.5,10,7.5,10c2.1,0,4.7-0.5,7.6-1.6v5.3
		c-2.5,1-5.2,1.5-8.2,1.5c-4.4,0-7.7-1.3-10-4c-2.3-2.6-3.5-6.4-3.5-11.4c0-3.1,0.6-5.8,1.7-8.2s2.8-4.1,4.9-5.4
		c2.1-1.2,4.6-1.9,7.5-1.9c2.9,0,5.8,0.7,8.8,2.1l-2.1,5.2c-1.1-0.5-2.2-1-3.4-1.4S319.1,214.9,318,214.9z"/>
	<path class="st0" d="M359.2,225c0,5-1.2,8.8-3.7,11.4s-6,4-10.6,4s-8.1-1.3-10.6-4s-3.7-6.5-3.7-11.5s1.2-8.8,3.7-11.4
		c2.5-2.6,6-3.9,10.6-3.9s8.1,1.3,10.6,4C358,216.2,359.2,220.1,359.2,225z M337.3,225c0,3.4,0.6,5.9,1.9,7.6s3.2,2.5,5.7,2.5
		c5.1,0,7.6-3.4,7.6-10.1c0-6.8-2.5-10.1-7.6-10.1c-2.5,0-4.4,0.9-5.7,2.6C338,219.2,337.3,221.7,337.3,225z"/>
	<path class="st0" d="M392,240.1H384l-13-22.7h-0.2c0.3,4,0.4,6.9,0.4,8.6v14.1h-5.7v-30h8l13,22.5h0.1c-0.2-3.9-0.3-6.7-0.3-8.3
		v-14.2h5.7L392,240.1L392,240.1z"/>
	<path class="st0" d="M417.3,231.7c0,2.7-1,4.8-2.9,6.4c-1.9,1.6-4.7,2.3-8.1,2.3c-3.2,0-6-0.6-8.5-1.8v-5.9c2,0.9,3.7,1.5,5.1,1.9
		s2.7,0.6,3.8,0.6c1.4,0,2.5-0.3,3.2-0.8s1.1-1.3,1.1-2.4c0-0.6-0.2-1.1-0.5-1.6c-0.3-0.5-0.8-0.9-1.4-1.3c-0.6-0.4-1.9-1.1-3.9-2
		c-1.8-0.9-3.2-1.7-4.1-2.5s-1.6-1.7-2.2-2.8s-0.8-2.3-0.8-3.7c0-2.7,0.9-4.7,2.7-6.3s4.3-2.3,7.5-2.3c1.6,0,3,0.2,4.5,0.6
		c1.4,0.4,2.9,0.9,4.4,1.6l-2.1,4.9c-1.6-0.7-2.9-1.1-4-1.4c-1-0.3-2.1-0.4-3.1-0.4c-1.2,0-2.1,0.3-2.8,0.8s-1,1.3-1,2.2
		c0,0.6,0.1,1.1,0.4,1.5c0.3,0.4,0.7,0.8,1.2,1.2c0.6,0.4,1.9,1.1,4,2.1c2.8,1.3,4.7,2.7,5.8,4C416.8,228.1,417.3,229.8,417.3,231.7
		z"/>
	<path class="st0" d="M434.3,240.1h-6.4v-24.7h-8.1v-5.3h22.6v5.3h-8.1V240.1z"/>
	<path class="st0" d="M453.4,228.6v11.5H447v-30h8.7c4.1,0,7.1,0.7,9,2.2c2,1.5,2.9,3.7,2.9,6.8c0,1.8-0.5,3.3-1.5,4.7
		c-1,1.4-2.3,2.4-4.1,3.2c4.5,6.7,7.5,11.1,8.8,13.1h-7.1l-7.2-11.5L453.4,228.6L453.4,228.6z M453.4,223.4h2.1c2,0,3.5-0.3,4.5-1
		s1.4-1.7,1.4-3.2c0-1.4-0.5-2.4-1.5-3c-1-0.6-2.5-0.9-4.5-0.9h-1.9V223.4z"/>
	<path class="st0" d="M499.2,210.1v19.4c0,2.2-0.5,4.2-1.5,5.8c-1,1.7-2.4,2.9-4.3,3.8s-4.1,1.3-6.6,1.3c-3.9,0-6.9-1-9-3
		s-3.2-4.7-3.2-8.1v-19.3h6.3v18.4c0,2.3,0.5,4,1.4,5.1s2.5,1.6,4.6,1.6c2.1,0,3.6-0.5,4.5-1.6c0.9-1.1,1.4-2.8,1.4-5.1v-18.3H499.2
		z"/>
	<path class="st0" d="M519.3,214.9c-2.4,0-4.2,0.9-5.6,2.7c-1.3,1.8-2,4.3-2,7.5c0,6.7,2.5,10,7.5,10c2.1,0,4.7-0.5,7.6-1.6v5.3
		c-2.5,1-5.2,1.5-8.2,1.5c-4.4,0-7.7-1.3-10-4c-2.3-2.6-3.5-6.4-3.5-11.4c0-3.1,0.6-5.8,1.7-8.2s2.8-4.1,4.9-5.4
		c2.1-1.2,4.6-1.9,7.5-1.9c2.9,0,5.8,0.7,8.8,2.1l-2.1,5.2c-1.1-0.5-2.2-1-3.4-1.4S520.3,214.9,519.3,214.9z"/>
	<path class="st0" d="M544.8,240.1h-6.4v-24.7h-8.1v-5.3H553v5.3h-8.1L544.8,240.1L544.8,240.1z"/>
	<path class="st0" d="M557.6,240.1v-30h6.4v30H557.6z"/>
	<path class="st0" d="M598.7,225c0,5-1.2,8.8-3.7,11.4s-6,4-10.6,4s-8.1-1.3-10.6-4s-3.7-6.5-3.7-11.5s1.2-8.8,3.7-11.4
		c2.5-2.6,6-3.9,10.6-3.9s8.1,1.3,10.6,4C597.5,216.2,598.7,220.1,598.7,225z M576.8,225c0,3.4,0.6,5.9,1.9,7.6s3.2,2.5,5.7,2.5
		c5.1,0,7.6-3.4,7.6-10.1c0-6.8-2.5-10.1-7.6-10.1c-2.5,0-4.4,0.9-5.7,2.6C577.5,219.2,576.8,221.7,576.8,225z"/>
	<path class="st0" d="M631.5,240.1h-8.1l-13-22.7h-0.2c0.3,4,0.4,6.9,0.4,8.6v14.1h-5.7v-30h8l13,22.5h0.1c-0.2-3.9-0.3-6.7-0.3-8.3
		v-14.2h5.7L631.5,240.1L631.5,240.1z"/>
</g>
<g>
	<path class="st0" d="M423.8,127.7l-19.3,5.1l-13.4,3.8v-22L362,101.8l-19.3,5.1l0.3-46.7l-30.4-20.8L265,60.2v100.2
		c1.6-0.3,3.1-0.7,4.7-1v-12.8l7.6-1.3v12.7c1.4-0.2,2.8-0.5,4.2-0.7v-12.7l7.7-1.3v12.8c0.3,0,0.5-0.1,0.8-0.1
		c1.3-0.2,2.5-0.4,3.8-0.5v-12.9l7.4-1.2v13.4c1.6-0.1,3.2-0.2,4.7-0.2v-14l7.1-1.2v15.4c7.7,0.7,13.2,3,16.8,6.9
		c0.3-0.1,0.5-0.2,0.8-0.2v-17l7.1-1.2v16.3c1.6-0.4,3.3-0.8,5.1-1.2v-15.9l6.5-1.1v15.7c1.7-0.3,3.5-0.6,5.4-0.9v-15.6l6.9-1.1
		v15.7c9.1-1.2,19.5-2.1,31.1-2.2v-11.6l6.9-1.5v13.1c1.7,0,3.4,0.1,5.1,0.1v-14.3l6.5-1.4v16c1.8,0.1,3.6,0.2,5.4,0.4V136l7.1-1.5
		v19.8c9.8,1.1,19.8,2.9,29.2,4.9v-18.6L423.8,127.7z M277.3,139.9l-7.6,1.4v-22.7l7.6-1.9V139.9z M277.3,111.2l-7.6,1.9V91l7.6-2.4
		V111.2z M277.3,83.2l-7.6,2.6V63.4l7.6-3.1V83.2z M289.2,137.7l-7.7,1.4v-23.5l7.7-1.9V137.7z M289.2,108.2l-7.7,1.9V87.3l7.7-2.4
		V108.2z M289.2,79.2l-7.7,2.6V58.5l7.7-3.2V79.2z M301.1,135.4l-7.4,1.4v-24.2l7.4-1.8V135.4z M301.1,105.3l-7.4,1.8V83.4l7.4-2.3
		V105.3z M301.1,75.1l-7.4,2.5V53.4l7.4-3V75.1z M313,133.2l-7.1,1.3v-25l7.1-1.8V133.2z M313,102.3l-7.1,1.8V79.6l7.1-2.3V102.3z
		 M313,71.1l-7.1,2.4V48.5l7.1-3V71.1z M337.7,137.9l-7.1,1.3v-24.7l7.1-1.5V137.9z M349.3,135.9l-6.5,1.1v-25.2l6.5-1.4V135.9z
		 M361.6,133.7l-6.9,1.2v-25.6l6.9-1.5V133.7z"/>
	<path class="st0" d="M342.8,31.5v-27l-89.9,16.3L247.4,0l-17.2,6.9l-4.7,24.3L200.1,41v7.4l24.1,10.7l-0.4,114.5
		c1.7-0.7,3.4-1.4,5-2.1v-11.3l4.3,9.6c1.8-0.7,3.5-1.3,5.2-1.9l-6.7-14.3h7.2v14.2c1.6-0.6,3.2-1.1,4.8-1.6v-12.5h4.8v11
		c1.5-0.4,3-0.9,4.5-1.3V50l84.6-35.5v17h-9.8v7.9h25.2v-7.9H342.8z M204.8,44.4l14.1-5.1l-5.8,9.1L204.8,44.4z M223.9,53.3
		l-6.2-2.5l6.2-10V53.3z M228.8,65.8l7.8,9.6l-7.8,2.2V65.8z M228.8,90l6.7,10.6l-6.7,1.4V90z M228.8,114.1l6.7,9.5l-6.7,2.5V114.1z
		 M228.8,149.1v-13.3l5.7,13.3H228.8z M238.9,143.9l-8.7-14.3h8.7V143.9z M238.9,120.2l-8.7-13.4l8.7-2.9V120.2z M238.9,94.8
		l-8.7-12l8.7-3.3V94.8z M238.9,68.9l-8.7-9.8l8.7-3.3V68.9z M238.9,50.2l-10,4.2V34.6l10-4.5V50.2z M230.2,29.2l4.4-17.8l4.3,14.3
		L230.2,29.2z M248.5,147.9h-4.8v-18.3h4.8V147.9z M248.5,123.6h-4.8v-19h4.8V123.6z M248.5,100.6l-4.8-1.8V79.4l4.8,1.6V100.6z
		 M248.5,76.5l-4.8-1.6V53.3l4.8-1.8V76.5z M248.5,45.7l-4.8,2.7V29.2l4.8-2.2V45.7z M243.7,24.1l-4.8-14.9l5.6-2.5l4,14.7
		L243.7,24.1z M253.2,44.4V29.2l9.8,11.2L253.2,44.4z M265,34.6l-8.5-9.4l8.5-1.1V34.6z M269.7,37.5V24.1l7.9,9.6L269.7,37.5z
		 M281.5,29.2l-7.8-7.9l7.8-1.1V29.2z M286.9,30.1v-9.8l7.4,7.1L286.9,30.1z M297.6,25.2l-6.7-7.1l6.7-0.5V25.2z M302.7,24.1v-8.7
		l5.1,6.5L302.7,24.1z M313,20.3l-5.1-5.6h5.1V20.3z M317.9,18.1v-5.1l15.4-1.6L317.9,18.1z"/>
</g>
<path class="st0" d="M238.9,167.6c-0.2,0.1-0.3,0.1-0.5,0.2"/>
<path class="st1" d="M496.1,176.8c-1.6-0.4-20.1-5.3-43.1-9c-15.2-2.4-32.4-4.3-48-4c-0.1,0-0.1,0-0.2,0c-1.7,0-3.5,0.1-5.1,0.2
	c-2.4,0.1-4.7,0.3-6.9,0.6c-1.4,0.1-2.8,0.3-4.2,0.6c-10,1.5-19.3,3.5-27.8,5.6c-2.1,0.5-4.1,1.1-6.1,1.6c-1.8,0.5-3.6,1-5.4,1.5
	c-2.2,0.7-4.4,1.3-6.5,2c-1.8,0.6-3.5,1.1-5.1,1.7c-2.5,0.9-4.9,1.7-7.1,2.5c-1.1,0.4-2.1,0.8-3.1,1.2c-5.9,2.3-10.8,4.4-14.5,6.1
	c-3.3,1.5-5.8,2.7-7.1,3.4c-0.9,0.5-1.4,0.8-1.4,0.8c-1,0.6-1.5,1-1.5,1s1.8-2.6,3-5.8c0.6-1.6,1-3.3,1-4.9c0-1.1-0.4-2-1-2.9
	c-1-1.2-2.5-2.3-4.7-3.1c-2-0.8-4.5-1.4-7.4-1.8c-1.4-0.2-3-0.3-4.6-0.4c-0.2,0-0.4,0-0.6,0c-2.4-0.1-4.6-0.2-6.7-0.3
	c-6-0.2-11.1-0.1-16.8,0.6c-3.6,0.4-7.5,1.1-12.1,2c-2.4,0.5-4.9,1.1-7.7,1.7c-0.5,0.1-1,0.2-1.5,0.4c-1.5,0.4-3.1,0.8-4.8,1.2
	c-1.4,0.4-2.8,0.7-4.4,1.1c-0.5,0.1-0.9,0.2-1.4,0.4c-2.8,0.8-5.9,1.9-9.3,3.1c-16.1,6-36.6,16-38.1,16.8
	c14.4-8.7,26.9-15.3,38.2-20.3c7-3.1,13.6-5.7,19.9-7.8c1.6-0.5,3.2-1.1,4.8-1.5c1.5-0.5,3-0.9,4.5-1.3c4.1-1.2,8.1-2.1,12-3
	c1.6-0.4,3.1-0.7,4.7-1c2.5-0.5,5-1,7.6-1.4c1.4-0.2,2.8-0.5,4.2-0.7c2.5-0.4,5.1-0.8,7.7-1.2c0.6-0.1,1.1-0.2,1.7-0.2
	c1-0.1,2-0.3,2.9-0.4c2.7-0.4,5.1-0.6,7.4-0.8c1.7-0.1,3.2-0.2,4.7-0.2c2.7-0.1,5.1,0.1,7.1,0.3c10,1.1,12.9,4.8,14.3,7.9
	c0.8-0.3,1.9-0.6,3.3-1.1c1.9-0.6,4.2-1.3,7.1-2c1.6-0.4,3.3-0.8,5.1-1.2c2-0.5,4.1-0.9,6.5-1.4c1.7-0.3,3.5-0.6,5.4-1
	c2.2-0.4,4.5-0.7,6.9-1.1c9-1.2,19.5-2.1,31.1-2.3c2.3,0,4.6,0,6.9,0c1.7,0,3.4,0.1,5.1,0.1c2.1,0.1,4.3,0.2,6.5,0.3
	c1.8,0.1,3.5,0.2,5.4,0.4c1.1,0.1,2.2,0.2,3.3,0.3c1.3,0.1,2.6,0.3,3.9,0.4c9.8,1.1,19.9,2.9,29.2,4.9
	C475.7,170.1,494.4,176.3,496.1,176.8z"/>
</svg>
